# 3ds Max Wavefront OBJ Exporter v0.97b - (c)2007 guruware
# 创建的文件:16.04.2017 18:36:08

mtllib main.mtl

#
# object dimian
#

v  -750.0000 -0.0001 1400.0000
v  750.0000 -0.0001 1400.0000
v  -750.0000 -0.0001 -1400.0000
v  750.0000 -0.0001 -1400.0000
# 4 vertices

vn 0.0000 1.0000 -0.0000
vn 0.0000 1.0000 -0.0000
vn 0.0000 1.0000 -0.0000
vn 0.0000 1.0000 -0.0000
vn 0.0000 1.0000 -0.0000
vn 0.0000 1.0000 -0.0000
# 6 vertex normals

vt -3.7007 -6.5000 0.9925
vt 3.7993 -6.5000 0.9925
vt 3.7993 7.5000 0.9925
vt -3.7007 7.5000 0.9925
# 4 texture coords

g dimian
usemtl Material_diban
f 4/3/1 3/4/2 1/1/3 
f 1/1/4 2/2/5 4/3/6 
# 2 faces

#
# object baixian
#

v  -579.2905 2.0000 1400.0000
v  579.3157 2.0000 1400.0000
v  -579.2905 2.0000 636.5628
v  579.3157 2.0000 636.5628
# 4 vertices

vn 0.0000 1.0000 -0.0000
vn 0.0000 1.0000 -0.0000
vn 0.0000 1.0000 -0.0000
vn 0.0000 1.0000 -0.0000
vn 0.0000 1.0000 -0.0000
vn 0.0000 1.0000 -0.0000
# 6 vertex normals

vt 0.0005 0.0017 0.5000
vt 0.9995 0.0017 0.5000
vt 0.0005 0.9983 0.5000
vt 0.9995 0.9983 0.5000
# 4 texture coords

g baixian
usemtl Material__80
f 5/5/7 6/6/8 8/8/9 
f 8/8/10 7/7/11 5/5/12 
# 2 faces

#
# object baixian001
#

v  -750.0000 4.0000 437.2109
v  750.0000 4.0000 437.2109
v  -750.0000 4.0000 1400.0000
v  750.0000 4.0000 1400.0000
# 4 vertices

vn 0.0000 1.0000 -0.0000
vn 0.0000 1.0000 -0.0000
vn 0.0000 1.0000 -0.0000
vn 0.0000 1.0000 -0.0000
vn 0.0000 1.0000 -0.0000
vn 0.0000 1.0000 -0.0000
# 6 vertex normals

vt 0.0000 0.0000 0.0000
vt 1.0000 0.0000 0.0000
vt 0.0000 1.0000 0.0000
vt 1.0000 1.0000 0.0000
# 4 texture coords

g baixian001
usemtl Material__79
f 9/9/13 11/11/14 12/12/15 
f 12/12/16 10/10/17 9/9/18 
# 2 faces

